<svg width="58" height="58" viewBox="0 0 58 58" fill="none" xmlns="http://www.w3.org/2000/svg">
<circle cx="29" cy="29" r="29" fill="#1ACB24"/>
<path d="M13.375 17.75H45.625V39.25H13.375V17.75ZM29.5 23.125C30.9255 23.125 32.2927 23.6913 33.3007 24.6993C34.3087 25.7073 34.875 27.0745 34.875 28.5C34.875 29.9255 34.3087 31.2927 33.3007 32.3007C32.2927 33.3087 30.9255 33.875 29.5 33.875C28.0745 33.875 26.7073 33.3087 25.6993 32.3007C24.6913 31.2927 24.125 29.9255 24.125 28.5C24.125 27.0745 24.6913 25.7073 25.6993 24.6993C26.7073 23.6913 28.0745 23.125 29.5 23.125ZM20.5417 21.3333C20.5417 22.2837 20.1641 23.1951 19.4921 23.8671C18.8201 24.5391 17.9087 24.9167 16.9583 24.9167V32.0833C17.9087 32.0833 18.8201 32.4609 19.4921 33.1329C20.1641 33.8049 20.5417 34.7163 20.5417 35.6667H38.4583C38.4583 34.7163 38.8359 33.8049 39.5079 33.1329C40.1799 32.4609 41.0913 32.0833 42.0417 32.0833V24.9167C41.0913 24.9167 40.1799 24.5391 39.5079 23.8671C38.8359 23.1951 38.4583 22.2837 38.4583 21.3333H20.5417Z" fill="white"/>
</svg>
