<svg width="44" height="44" viewBox="0 0 44 44" fill="none" xmlns="http://www.w3.org/2000/svg">
<rect width="44" height="44" fill="white"/>
<path d="M40.3333 10.0833H16.5C14.4833 10.0833 12.8333 11.7333 12.8333 13.75V30.25C12.8333 32.285 14.4833 33.9167 16.5 33.9167H40.3333C42.3683 33.9167 44 32.285 44 30.25V13.75C44 11.7333 42.3683 10.0833 40.3333 10.0833ZM40.3333 30.25H16.5V16.8117L28.4167 22.9167L40.3333 16.8117V30.25ZM28.4167 19.8183L16.5 13.75H40.3333L28.4167 19.8183ZM9.16667 30.25C9.16667 30.5617 9.22167 30.855 9.25833 31.1667H1.83333C0.821333 31.1667 0 30.3417 0 29.3333C0 28.325 0.821333 27.5 1.83333 27.5H9.16667V30.25ZM5.5 12.8333H9.25833C9.22167 13.145 9.16667 13.4383 9.16667 13.75V16.5H5.5C4.49167 16.5 3.66667 15.675 3.66667 14.6667C3.66667 13.6583 4.49167 12.8333 5.5 12.8333ZM1.83333 22C1.83333 20.9917 2.65833 20.1667 3.66667 20.1667H9.16667V23.8333H3.66667C2.65833 23.8333 1.83333 23.0083 1.83333 22Z" fill="#9A9A9A"/>
</svg>
