<svg width="110" height="36" viewBox="0 0 110 36" fill="none" xmlns="http://www.w3.org/2000/svg">
<g opacity="0.5" filter="url(#filter0_b_6_3)">
<rect width="110" height="36" rx="18" fill="#B7FEBB" fill-opacity="0.6"/>
</g>
<path d="M63.707 18.1143H64.7939C65.1038 18.1143 65.359 18.0596 65.5596 17.9502C65.7646 17.8408 65.915 17.6859 66.0107 17.4854C66.111 17.2848 66.1611 17.0501 66.1611 16.7812C66.1611 16.5488 66.1156 16.3415 66.0244 16.1592C65.9333 15.9769 65.7943 15.8333 65.6074 15.7285C65.4251 15.6191 65.1882 15.5645 64.8965 15.5645C64.6868 15.5645 64.4863 15.6077 64.2949 15.6943C64.1081 15.7764 63.9554 15.8971 63.8369 16.0566C63.7184 16.2116 63.6592 16.3984 63.6592 16.6172H61.5195C61.5195 16.0612 61.6699 15.5804 61.9707 15.1748C62.276 14.7692 62.6794 14.457 63.1807 14.2383C63.6865 14.015 64.238 13.9033 64.835 13.9033C65.5231 13.9033 66.127 14.0127 66.6465 14.2314C67.1706 14.4456 67.5762 14.7646 67.8633 15.1885C68.1549 15.6077 68.3008 16.1273 68.3008 16.7471C68.3008 17.0706 68.2233 17.3828 68.0684 17.6836C67.918 17.9798 67.7015 18.2441 67.4189 18.4766C67.141 18.7044 66.8083 18.8867 66.4209 19.0234C66.0381 19.1556 65.612 19.2217 65.1426 19.2217H63.707V18.1143ZM63.707 19.7207V18.6338H65.1426C65.6621 18.6338 66.127 18.693 66.5371 18.8115C66.9473 18.93 67.2959 19.1009 67.583 19.3242C67.8701 19.5475 68.0889 19.8187 68.2393 20.1377C68.3896 20.4567 68.4648 20.8122 68.4648 21.2041C68.4648 21.6689 68.3737 22.0837 68.1914 22.4482C68.0091 22.8128 67.7539 23.1204 67.4258 23.3711C67.0977 23.6217 66.7126 23.8132 66.2705 23.9453C65.8285 24.0729 65.3499 24.1367 64.835 24.1367C64.4202 24.1367 64.0078 24.0798 63.5977 23.9658C63.1875 23.8519 62.8161 23.6787 62.4834 23.4463C62.1507 23.2093 61.8841 22.9108 61.6836 22.5508C61.4831 22.1862 61.3828 21.7533 61.3828 21.252H63.5225C63.5225 21.4844 63.5817 21.694 63.7002 21.8809C63.8232 22.0632 63.9896 22.209 64.1992 22.3184C64.4134 22.4232 64.6458 22.4756 64.8965 22.4756C65.1973 22.4756 65.4525 22.4209 65.6621 22.3115C65.8763 22.1976 66.0381 22.0426 66.1475 21.8467C66.2614 21.6507 66.3184 21.4251 66.3184 21.1699C66.3184 20.8236 66.2568 20.5456 66.1338 20.3359C66.0153 20.1217 65.8421 19.9668 65.6143 19.8711C65.3864 19.7708 65.113 19.7207 64.7939 19.7207H63.707ZM71.7871 18.1143H72.874C73.1839 18.1143 73.4391 18.0596 73.6396 17.9502C73.8447 17.8408 73.9951 17.6859 74.0908 17.4854C74.1911 17.2848 74.2412 17.0501 74.2412 16.7812C74.2412 16.5488 74.1956 16.3415 74.1045 16.1592C74.0133 15.9769 73.8743 15.8333 73.6875 15.7285C73.5052 15.6191 73.2682 15.5645 72.9766 15.5645C72.7669 15.5645 72.5664 15.6077 72.375 15.6943C72.1882 15.7764 72.0355 15.8971 71.917 16.0566C71.7985 16.2116 71.7393 16.3984 71.7393 16.6172H69.5996C69.5996 16.0612 69.75 15.5804 70.0508 15.1748C70.3561 14.7692 70.7594 14.457 71.2607 14.2383C71.7666 14.015 72.318 13.9033 72.915 13.9033C73.6032 13.9033 74.207 14.0127 74.7266 14.2314C75.2507 14.4456 75.6562 14.7646 75.9434 15.1885C76.235 15.6077 76.3809 16.1273 76.3809 16.7471C76.3809 17.0706 76.3034 17.3828 76.1484 17.6836C75.998 17.9798 75.7816 18.2441 75.499 18.4766C75.221 18.7044 74.8883 18.8867 74.501 19.0234C74.1182 19.1556 73.6921 19.2217 73.2227 19.2217H71.7871V18.1143ZM71.7871 19.7207V18.6338H73.2227C73.7422 18.6338 74.207 18.693 74.6172 18.8115C75.0273 18.93 75.376 19.1009 75.6631 19.3242C75.9502 19.5475 76.1689 19.8187 76.3193 20.1377C76.4697 20.4567 76.5449 20.8122 76.5449 21.2041C76.5449 21.6689 76.4538 22.0837 76.2715 22.4482C76.0892 22.8128 75.834 23.1204 75.5059 23.3711C75.1777 23.6217 74.7926 23.8132 74.3506 23.9453C73.9085 24.0729 73.43 24.1367 72.915 24.1367C72.5003 24.1367 72.0879 24.0798 71.6777 23.9658C71.2676 23.8519 70.8962 23.6787 70.5635 23.4463C70.2308 23.2093 69.9642 22.9108 69.7637 22.5508C69.5632 22.1862 69.4629 21.7533 69.4629 21.252H71.6025C71.6025 21.4844 71.6618 21.694 71.7803 21.8809C71.9033 22.0632 72.0697 22.209 72.2793 22.3184C72.4935 22.4232 72.7259 22.4756 72.9766 22.4756C73.2773 22.4756 73.5326 22.4209 73.7422 22.3115C73.9564 22.1976 74.1182 22.0426 74.2275 21.8467C74.3415 21.6507 74.3984 21.4251 74.3984 21.1699C74.3984 20.8236 74.3369 20.5456 74.2139 20.3359C74.0954 20.1217 73.9222 19.9668 73.6943 19.8711C73.4665 19.7708 73.193 19.7207 72.874 19.7207H71.7871ZM77.7959 16.4873V15.9609C77.7959 15.5827 77.8779 15.2386 78.042 14.9287C78.2061 14.6188 78.4499 14.3704 78.7734 14.1836C79.1016 13.9967 79.5026 13.9033 79.9766 13.9033C80.4688 13.9033 80.8766 13.9967 81.2002 14.1836C81.5238 14.3704 81.7653 14.6188 81.9248 14.9287C82.0889 15.2386 82.1709 15.5827 82.1709 15.9609V16.4873C82.1709 16.8564 82.0889 17.196 81.9248 17.5059C81.7653 17.8158 81.5238 18.0641 81.2002 18.251C80.8812 18.4378 80.4801 18.5312 79.9971 18.5312C79.514 18.5312 79.1084 18.4378 78.7803 18.251C78.4567 18.0641 78.2106 17.8158 78.042 17.5059C77.8779 17.196 77.7959 16.8564 77.7959 16.4873ZM79.1904 15.9609V16.4873C79.1904 16.6377 79.2201 16.779 79.2793 16.9111C79.3385 17.0433 79.4274 17.1504 79.5459 17.2324C79.6644 17.3145 79.8125 17.3555 79.9902 17.3555C80.1725 17.3555 80.3206 17.3145 80.4346 17.2324C80.5485 17.1504 80.6328 17.0433 80.6875 16.9111C80.7467 16.779 80.7764 16.6377 80.7764 16.4873V15.9609C80.7764 15.806 80.7467 15.6624 80.6875 15.5303C80.6328 15.3936 80.5462 15.2842 80.4277 15.2021C80.3092 15.1201 80.1589 15.0791 79.9766 15.0791C79.8034 15.0791 79.6576 15.1201 79.5391 15.2021C79.4251 15.2842 79.3385 15.3936 79.2793 15.5303C79.2201 15.6624 79.1904 15.806 79.1904 15.9609ZM82.54 22.0859V21.5596C82.54 21.1859 82.6221 20.8441 82.7861 20.5342C82.9548 20.2243 83.2008 19.9759 83.5244 19.7891C83.8525 19.6022 84.2559 19.5088 84.7344 19.5088C85.222 19.5088 85.6276 19.6022 85.9512 19.7891C86.2747 19.9759 86.5163 20.2243 86.6758 20.5342C86.8398 20.8441 86.9219 21.1859 86.9219 21.5596V22.0859C86.9219 22.4596 86.8398 22.8014 86.6758 23.1113C86.5163 23.4212 86.2747 23.6696 85.9512 23.8564C85.6322 24.0433 85.2334 24.1367 84.7549 24.1367C84.2673 24.1367 83.8594 24.0433 83.5312 23.8564C83.2031 23.6696 82.9548 23.4212 82.7861 23.1113C82.6221 22.8014 82.54 22.4596 82.54 22.0859ZM83.9414 21.5596V22.0859C83.9414 22.2409 83.9756 22.3844 84.0439 22.5166C84.1123 22.6488 84.208 22.7559 84.3311 22.8379C84.4541 22.9199 84.5931 22.9609 84.748 22.9609C84.9622 22.9609 85.124 22.9199 85.2334 22.8379C85.3473 22.7559 85.4248 22.6488 85.4658 22.5166C85.5068 22.3844 85.5273 22.2409 85.5273 22.0859V21.5596C85.5273 21.4046 85.4977 21.2611 85.4385 21.1289C85.3838 20.9967 85.2972 20.8896 85.1787 20.8076C85.0602 20.7256 84.9121 20.6846 84.7344 20.6846C84.5566 20.6846 84.4085 20.7256 84.29 20.8076C84.1715 20.8896 84.0827 20.9967 84.0234 21.1289C83.9688 21.2611 83.9414 21.4046 83.9414 21.5596ZM85.2676 15.4756L80.4072 23.2549L79.3887 22.7285L84.249 14.9492L85.2676 15.4756Z" fill="#1ACB24"/>
<path d="M36.625 28.6667H28.375V18H21.72L32.5 7.54669L43.28 18H36.625V28.6667Z" fill="#1ACB24"/>
<defs>
<filter id="filter0_b_6_3" x="-4" y="-4" width="118" height="44" filterUnits="userSpaceOnUse" color-interpolation-filters="sRGB">
<feFlood flood-opacity="0" result="BackgroundImageFix"/>
<feGaussianBlur in="BackgroundImage" stdDeviation="2"/>
<feComposite in2="SourceAlpha" operator="in" result="effect1_backgroundBlur_6_3"/>
<feBlend mode="normal" in="SourceGraphic" in2="effect1_backgroundBlur_6_3" result="shape"/>
</filter>
</defs>
</svg>
