<svg width="41" height="41" viewBox="0 0 41 41" fill="none" xmlns="http://www.w3.org/2000/svg">
<rect width="41" height="41" fill="white"/>
<path d="M16.2292 5.125C19.1742 5.125 21.9986 6.2949 24.081 8.37733C26.1634 10.4598 27.3333 13.2842 27.3333 16.2292C27.3333 18.9796 26.3254 21.5079 24.6683 23.4554L25.1296 23.9167H26.4792L35.0208 32.4583L32.4583 35.0208L23.9167 26.4792V25.1296L23.4554 24.6683C21.5079 26.3254 18.9796 27.3333 16.2292 27.3333C13.2842 27.3333 10.4598 26.1634 8.37733 24.081C6.2949 21.9986 5.125 19.1742 5.125 16.2292C5.125 13.2842 6.2949 10.4598 8.37733 8.37733C10.4598 6.2949 13.2842 5.125 16.2292 5.125ZM16.2292 8.54167C11.9583 8.54167 8.54167 11.9583 8.54167 16.2292C8.54167 20.5 11.9583 23.9167 16.2292 23.9167C20.5 23.9167 23.9167 20.5 23.9167 16.2292C23.9167 11.9583 20.5 8.54167 16.2292 8.54167Z" fill="#9A9A9A"/>
</svg>
