<svg width="58" height="58" viewBox="0 0 58 58" fill="none" xmlns="http://www.w3.org/2000/svg">
<circle cx="29" cy="29" r="29" fill="#C60EBE"/>
<path d="M29 7.33333C17.0183 7.33333 7.33333 17.0833 7.33333 29C7.33333 34.7464 9.61606 40.2574 13.6793 44.3206C15.6913 46.3326 18.0798 47.9285 20.7085 49.0174C23.3372 50.1062 26.1547 50.6667 29 50.6667C34.7464 50.6667 40.2574 48.3839 44.3206 44.3206C48.3839 40.2574 50.6667 34.7464 50.6667 29C50.6667 26.1547 50.1062 23.3372 49.0174 20.7085C47.9285 18.0798 46.3326 15.6913 44.3206 13.6793C42.3087 11.6674 39.9202 10.0715 37.2915 8.98261C34.6627 7.89375 31.8453 7.33333 29 7.33333M36.8 21.07C39.1183 21.07 40.9817 22.9333 40.9817 25.2517C40.9817 27.57 39.1183 29.4333 36.8 29.4333C35.6909 29.4333 34.6273 28.9928 33.8431 28.2085C33.0589 27.4243 32.6183 26.3607 32.6183 25.2517C32.5967 22.9333 34.4817 21.07 36.8 21.07ZM23.8 17.6467C26.6167 17.6467 28.9133 19.9433 28.9133 22.76C28.9133 25.5767 26.6167 27.9167 23.8 27.9167C20.9833 27.9167 18.6867 25.5767 18.6867 22.76C18.6867 19.9217 20.9617 17.6467 23.8 17.6467ZM23.8 37.4283V45.5533C18.6 43.9283 14.4833 39.92 12.6633 34.8067C14.9167 32.38 20.615 31.1667 23.8 31.1667C24.9483 31.1667 26.4 31.3183 27.9167 31.6217C24.3633 33.5067 23.8 35.9983 23.8 37.4283ZM29 46.3333C28.3933 46.3333 27.83 46.3333 27.2667 46.2467V37.4283C27.2667 34.3517 33.6367 32.8133 36.8 32.8133C39.1183 32.8133 43.0833 33.6583 45.12 35.305C42.585 41.74 36.3233 46.3333 29 46.3333Z" fill="white"/>
</svg>
